<?xml version="1.0" encoding="utf-8"?>
<!-- Generator: Adobe Illustrator 21.0.2, SVG Export Plug-In . SVG Version: 6.00 Build 0)  -->
<svg version="1.1" id="icons" xmlns="http://www.w3.org/2000/svg" xmlns:xlink="http://www.w3.org/1999/xlink" x="0px" y="0px"
	 viewBox="0 0 60 60" style="enable-background:new 0 0 60 60;" xml:space="preserve">
<style type="text/css">
	.st0{fill:#AE164C;}
</style>
<g>
	<polygon class="st0" points="60,5.5 49.1,5.5 49.1,0 43.7,0 43.7,16.4 49.1,16.4 49.1,10.9 54.6,10.9 54.6,54.5 5.5,54.5 5.5,10.9 
		8.3,10.9 8.3,5.5 0.1,5.5 0.1,60 60,60 	"/>
	<polygon class="st0" points="16.4,0 11,0 11,16.4 16.4,16.4 16.4,10.9 40.9,10.9 40.9,5.5 16.4,5.5 	"/>
	<rect x="21.9" y="21.8" class="st0" width="5.4" height="5.4"/>
	<rect x="32.8" y="21.8" class="st0" width="5.4" height="5.4"/>
	<rect x="43.7" y="21.8" class="st0" width="5.4" height="5.4"/>
	<rect x="11" y="32.7" class="st0" width="5.4" height="5.4"/>
	<rect x="21.9" y="32.7" class="st0" width="5.4" height="5.4"/>
	<rect x="32.8" y="32.7" class="st0" width="5.4" height="5.4"/>
	<rect x="43.7" y="32.7" class="st0" width="5.4" height="5.4"/>
	<rect x="11" y="43.6" class="st0" width="5.4" height="5.4"/>
	<rect x="21.9" y="43.6" class="st0" width="5.4" height="5.4"/>
	<rect x="32.8" y="43.6" class="st0" width="5.4" height="5.4"/>
	<rect x="43.7" y="43.6" class="st0" width="5.4" height="5.4"/>
</g>
</svg>
