<?xml version="1.0" encoding="utf-8"?>
<!-- Generator: Adobe Illustrator 21.0.2, SVG Export Plug-In . SVG Version: 6.00 Build 0)  -->
<svg version="1.1" id="icons" xmlns="http://www.w3.org/2000/svg" xmlns:xlink="http://www.w3.org/1999/xlink" x="0px" y="0px"
	 viewBox="0 0 44.6 60" style="enable-background:new 0 0 44.6 60;" xml:space="preserve">
<style type="text/css">
	.st0{fill:#AE164C;}
</style>
<g>
	<path class="st0" d="M22.3,0C10,0,0,10,0,22.3c0,11.5,18.1,32.9,20.2,35.3l2.1,2.5l2.1-2.5c2.1-2.4,20.2-23.8,20.2-35.3
		C44.6,10,34.6,0,22.3,0z M22.3,51.4c-6.1-7.5-16.7-22-16.7-29.1c0-9.2,7.5-16.7,16.7-16.7c9.2,0,16.7,7.5,16.7,16.7
		C39,29.3,28.4,43.9,22.3,51.4z"/>
	<path class="st0" d="M22.2,11c-6.1,0-11.1,5-11.1,11.1c0,6.1,5,11.1,11.1,11.1c6.1,0,11.1-5,11.1-11.1C33.4,16,28.4,11,22.2,11z
		 M22.2,27.8c-3.1,0-5.6-2.5-5.6-5.6c0-3.1,2.5-5.6,5.6-5.6c3.1,0,5.6,2.5,5.6,5.6C27.8,25.3,25.3,27.8,22.2,27.8z"/>
</g>
</svg>
