<?xml version="1.0" encoding="utf-8"?>
<!-- Generator: Adobe Illustrator 21.0.2, SVG Export Plug-In . SVG Version: 6.00 Build 0)  -->
<svg version="1.1" id="Capa_1" xmlns="http://www.w3.org/2000/svg" xmlns:xlink="http://www.w3.org/1999/xlink" x="0px" y="0px"
	 viewBox="0 0 35.7 13.8" style="enable-background:new 0 0 35.7 13.8;" xml:space="preserve">
<style type="text/css">
	.st0{fill:#EB0029;}
	.st1{fill:#002856;}
</style>
<g>
	<g>
		<path class="st0" d="M11.4,0.1h1.8V5c0.8-0.6,1.6-0.9,2.6-0.9c1.2,0,2.1,0.4,2.9,1.3s1.1,2,1.1,3.4c0,1.5-0.4,2.7-1.3,3.6
			c-0.9,0.9-2.1,1.3-3.6,1.3c-0.6,0-1.2-0.1-1.9-0.2c-0.7-0.1-1.2-0.3-1.6-0.5V0.1z M13.3,6.8v5c0.6,0.2,1.3,0.3,1.9,0.3
			c0.8,0,1.5-0.3,2-0.9C17.7,10.7,18,9.9,18,9c0-0.9-0.2-1.7-0.7-2.3c-0.5-0.6-1.1-0.9-1.9-0.9C14.7,5.9,14,6.2,13.3,6.8z"/>
		<path class="st0" d="M20.6,4.4h1.6V1.2h1.9v3.1H27V6h-2.9v4.6c0,1.1,0.4,1.6,1.3,1.6c0.7,0,1.4-0.2,2.1-0.7v1.7
			c-0.7,0.4-1.5,0.6-2.3,0.6c-0.8,0-1.5-0.2-2.1-0.7c-0.2-0.1-0.3-0.3-0.4-0.5c-0.1-0.2-0.2-0.4-0.3-0.7c-0.1-0.3-0.1-0.9-0.1-1.7V6
			h-1.6V4.4z"/>
		<path class="st0" d="M35.7,11.5v1.8c-0.9,0.3-1.8,0.5-2.7,0.5c-1.5,0-2.6-0.4-3.5-1.3c-0.9-0.9-1.3-2-1.3-3.5
			c0-1.5,0.4-2.6,1.3-3.5c0.8-0.9,2-1.3,3.3-1.3c0.5,0,0.9,0,1.3,0.1c0.4,0.1,0.9,0.3,1.4,0.5v2c-0.9-0.6-1.8-0.9-2.6-0.9
			c-0.8,0-1.5,0.3-2,0.9c-0.5,0.6-0.8,1.3-0.8,2.2c0,1,0.3,1.7,0.9,2.3c0.6,0.6,1.4,0.8,2.3,0.8C34,12.1,34.8,11.9,35.7,11.5z"/>
	</g>
	<g>
		<path class="st1" d="M3.8,8.8c0-0.1-0.1-0.2-0.1-0.2l-3.1-3c0,0-0.2,0-0.4,0.2C0,6,0,6.2,0,6.2l2,2.6L0,11.4c0,0,0,0.2,0.2,0.4
			c0.2,0.2,0.4,0.2,0.4,0.2l3.1-3C3.7,9,3.8,8.9,3.8,8.8z"/>
		<path class="st1" d="M4.5,8.1c0.1,0,0.2-0.1,0.2-0.1l3-3.1c0,0,0-0.2-0.2-0.4C7.3,4.4,7,4.3,7,4.3l-2.6,2L1.9,4.4
			c0,0-0.2,0-0.4,0.2C1.3,4.8,1.3,5,1.3,5l3,3.1C4.3,8.1,4.3,8.1,4.5,8.1z"/>
		<path class="st1" d="M4.4,9.4c-0.1,0-0.2,0.1-0.2,0.1l-3,3.1c0,0,0,0.2,0.2,0.4c0.2,0.2,0.4,0.2,0.4,0.2l2.6-2L7,13.2
			c0,0,0.2,0,0.4-0.2c0.2-0.2,0.2-0.4,0.2-0.4l-3-3.1C4.6,9.5,4.6,9.4,4.4,9.4z"/>
		<path class="st1" d="M5.2,8.6c0,0-0.1,0.1-0.1,0.2C5.1,8.9,5.2,9,5.2,9l3.1,3c0,0,0.2,0,0.4-0.2c0.2-0.2,0.2-0.4,0.2-0.4l-2-2.6
			l1.9-2.6c0,0,0-0.2-0.2-0.4C8.5,5.7,8.2,5.6,8.2,5.6L5.2,8.6z"/>
		<path class="st1" d="M1.5,4.6c0.2-0.2,0.4-0.2,0.4-0.2l2.6,1.9l2.6-2c0,0,0.3,0,0.4,0.2C7.6,4.8,7.6,5,7.6,5l-3,3.1
			c0,0-0.1,0.1-0.2,0.1c-0.1,0-0.2-0.1-0.2-0.1L1.3,5C1.3,5,1.3,4.8,1.5,4.6z"/>
		<path class="st1" d="M0.3,11.8C0.1,11.6,0,11.4,0,11.4L2,8.8L0,6.2c0,0,0-0.3,0.2-0.4c0.2-0.2,0.4-0.2,0.4-0.2l3.1,3
			c0,0,0.1,0.1,0.1,0.2C3.8,8.9,3.7,9,3.7,9l-3.1,3C0.7,11.9,0.4,11.9,0.3,11.8z"/>
		<path class="st1" d="M7.4,13C7.2,13.2,7,13.2,7,13.2l-2.6-1.9l-2.6,2c0,0-0.3,0-0.4-0.2c-0.2-0.2-0.2-0.4-0.2-0.4l3-3.1
			c0,0,0.1-0.1,0.2-0.1c0.1,0,0.2,0.1,0.2,0.1l3,3.1C7.6,12.6,7.6,12.8,7.4,13z"/>
		<path class="st1" d="M8.6,5.8C8.8,6,8.9,6.2,8.9,6.2L6.9,8.8l2,2.6c0,0,0,0.3-0.2,0.4c-0.2,0.2-0.4,0.2-0.4,0.2L5.2,9
			c0,0-0.1-0.1-0.1-0.2c0-0.1,0.1-0.2,0.1-0.2l3.1-3C8.2,5.6,8.5,5.7,8.6,5.8z"/>
	</g>
</g>
</svg>
